<svg width="512" height="640" viewBox="0 0 512 640" fill="none" xmlns="http://www.w3.org/2000/svg">
<path d="M428.5 282H425V217.9C425 123.6 349.2 46.9 256 46.9C162.8 46.9 87 123.6 87 217.9V282H83.5C54.8 282 31 305.1 31 334V412.7C31 441.6 54.8 465 83.5 465H136.6C144.9 465 152 458.4 152 450.1V296.6C152 288.3 144.9 282 136.6 282H117V217.9C117 140.1 179.3 76.9 256 76.9C332.7 76.9 395 140.2 395 217.9V282H375.4C367.1 282 360 288.3 360 296.6V450.1C360 458.4 367.1 465 375.4 465H428.5C457.2 465 480 441.6 480 412.7V334C480 305.1 457.2 282 428.5 282ZM122 435H83.5C71.4 435 61 425.1 61 412.7V334C61 321.6 71.4 312 83.5 312H122V435ZM450 412.7C450 425.1 440.6 435 428.5 435H390V312H428.5C440.6 312 450 321.7 450 334V412.7Z" fill="white"/>
<path d="M3.10791 525.816C3.08024 526.198 2.93864 526.5 2.68311 526.719C2.4292 526.939 2.09391 527.049 1.67725 527.049C1.22152 527.049 0.86263 526.896 0.600586 526.59C0.340169 526.282 0.209961 525.861 0.209961 525.325V525.108C0.209961 524.766 0.270182 524.465 0.390625 524.205C0.511068 523.944 0.68278 523.745 0.905762 523.606C1.13037 523.466 1.39079 523.396 1.68701 523.396C2.09717 523.396 2.42757 523.506 2.67822 523.726C2.92887 523.946 3.07373 524.254 3.11279 524.651H2.38037C2.36247 524.422 2.29818 524.256 2.1875 524.153C2.07845 524.049 1.91162 523.997 1.68701 523.997C1.44287 523.997 1.25977 524.085 1.1377 524.261C1.01725 524.435 0.955404 524.706 0.952148 525.074V525.342C0.952148 525.726 1.00993 526.007 1.12549 526.185C1.24268 526.362 1.4266 526.451 1.67725 526.451C1.90348 526.451 2.07194 526.399 2.18262 526.297C2.29492 526.193 2.35921 526.032 2.37549 525.816H3.10791ZM5.02686 525.02C4.93083 525.007 4.84619 525 4.77295 525C4.50602 525 4.33105 525.091 4.24805 525.271V527H3.54248V524.358H4.20898L4.22852 524.673C4.37012 524.431 4.56624 524.31 4.81689 524.31C4.89502 524.31 4.96826 524.32 5.03662 524.341L5.02686 525.02ZM6.53564 527.049C6.14827 527.049 5.83252 526.93 5.58838 526.692C5.34587 526.455 5.22461 526.138 5.22461 525.743V525.674C5.22461 525.409 5.27588 525.172 5.37842 524.964C5.48096 524.754 5.62581 524.593 5.81299 524.48C6.00179 524.367 6.21663 524.31 6.45752 524.31C6.81885 524.31 7.10286 524.424 7.30957 524.651C7.5179 524.879 7.62207 525.202 7.62207 525.621V525.909H5.93994C5.96273 526.081 6.03109 526.22 6.14502 526.324C6.26058 526.428 6.40625 526.48 6.58203 526.48C6.85384 526.48 7.06624 526.382 7.21924 526.185L7.56592 526.573C7.46012 526.722 7.31689 526.84 7.13623 526.924C6.95557 527.007 6.75537 527.049 6.53564 527.049ZM6.45508 524.881C6.3151 524.881 6.20117 524.928 6.11328 525.022C6.02702 525.117 5.97168 525.252 5.94727 525.428H6.92871V525.372C6.92546 525.215 6.88314 525.095 6.80176 525.01C6.72038 524.924 6.60482 524.881 6.45508 524.881ZM9.55566 527C9.52311 526.937 9.49951 526.858 9.48486 526.763C9.31396 526.954 9.0918 527.049 8.81836 527.049C8.55957 527.049 8.34473 526.974 8.17383 526.824C8.00456 526.674 7.91992 526.486 7.91992 526.258C7.91992 525.978 8.02327 525.763 8.22998 525.613C8.43831 525.464 8.73861 525.388 9.13086 525.386H9.45557V525.235C9.45557 525.113 9.42383 525.015 9.36035 524.942C9.2985 524.869 9.20003 524.832 9.06494 524.832C8.94613 524.832 8.85254 524.861 8.78418 524.917C8.71745 524.974 8.68408 525.053 8.68408 525.152H7.97852C7.97852 524.999 8.02572 524.857 8.12012 524.727C8.21452 524.597 8.34798 524.495 8.52051 524.422C8.69303 524.347 8.88672 524.31 9.10156 524.31C9.42708 524.31 9.68506 524.392 9.87549 524.556C10.0675 524.719 10.1636 524.948 10.1636 525.245V526.39C10.1652 526.64 10.2002 526.83 10.2686 526.958V527H9.55566ZM8.97217 526.509C9.07633 526.509 9.17236 526.486 9.26025 526.441C9.34814 526.394 9.41325 526.331 9.45557 526.253V525.799H9.19189C8.8387 525.799 8.65072 525.921 8.62793 526.165L8.62549 526.207C8.62549 526.294 8.65641 526.367 8.71826 526.424C8.78011 526.481 8.86475 526.509 8.97217 526.509ZM11.5503 523.709V524.358H12.002V524.876H11.5503V526.194C11.5503 526.292 11.569 526.362 11.6064 526.404C11.6439 526.447 11.7155 526.468 11.8213 526.468C11.8994 526.468 11.9686 526.462 12.0288 526.451V526.985C11.8905 527.028 11.748 527.049 11.6016 527.049C11.1068 527.049 10.8545 526.799 10.8447 526.299V524.876H10.459V524.358H10.8447V523.709H11.5503ZM13.6108 527.049C13.2235 527.049 12.9077 526.93 12.6636 526.692C12.4211 526.455 12.2998 526.138 12.2998 525.743V525.674C12.2998 525.409 12.3511 525.172 12.4536 524.964C12.5562 524.754 12.701 524.593 12.8882 524.48C13.077 524.367 13.2918 524.31 13.5327 524.31C13.894 524.31 14.1781 524.424 14.3848 524.651C14.5931 524.879 14.6973 525.202 14.6973 525.621V525.909H13.0151C13.0379 526.081 13.1063 526.22 13.2202 526.324C13.3358 526.428 13.4814 526.48 13.6572 526.48C13.929 526.48 14.1414 526.382 14.2944 526.185L14.6411 526.573C14.5353 526.722 14.3921 526.84 14.2114 526.924C14.0308 527.007 13.8306 527.049 13.6108 527.049ZM13.5303 524.881C13.3903 524.881 13.2764 524.928 13.1885 525.022C13.1022 525.117 13.0469 525.252 13.0225 525.428H14.0039V525.372C14.0007 525.215 13.9583 525.095 13.877 525.01C13.7956 524.924 13.68 524.881 13.5303 524.881ZM14.9902 525.66C14.9902 525.248 15.0822 524.92 15.2661 524.676C15.4517 524.432 15.7048 524.31 16.0254 524.31C16.2826 524.31 16.495 524.406 16.6626 524.598V523.25H17.3706V527H16.7334L16.6992 526.719C16.5234 526.939 16.2972 527.049 16.0205 527.049C15.7096 527.049 15.4598 526.927 15.271 526.683C15.0838 526.437 14.9902 526.096 14.9902 525.66ZM15.6958 525.711C15.6958 525.958 15.7389 526.148 15.8252 526.28C15.9115 526.412 16.0368 526.478 16.2012 526.478C16.4193 526.478 16.5731 526.386 16.6626 526.202V525.159C16.5747 524.975 16.4225 524.883 16.2061 524.883C15.8659 524.883 15.6958 525.159 15.6958 525.711ZM21.543 525.704C21.543 526.127 21.4526 526.457 21.272 526.695C21.0913 526.931 20.839 527.049 20.5151 527.049C20.2287 527.049 20 526.939 19.8291 526.719L19.7974 527H19.1626V523.25H19.8682V524.595C20.0309 524.405 20.245 524.31 20.5103 524.31C20.8325 524.31 21.0848 524.428 21.2671 524.666C21.451 524.902 21.543 525.235 21.543 525.665V525.704ZM20.8374 525.652C20.8374 525.385 20.7951 525.191 20.7104 525.069C20.6258 524.945 20.4997 524.883 20.332 524.883C20.1074 524.883 19.9528 524.975 19.8682 525.159V526.202C19.9544 526.387 20.1107 526.48 20.3369 526.48C20.5648 526.48 20.7145 526.368 20.7861 526.143C20.8203 526.036 20.8374 525.872 20.8374 525.652ZM22.937 526.001L23.4253 524.358H24.1821L23.1201 527.41L23.0615 527.549C22.9036 527.894 22.6432 528.067 22.2803 528.067C22.1777 528.067 22.0736 528.051 21.9678 528.021V527.486L22.0752 527.488C22.2087 527.488 22.3079 527.468 22.373 527.427C22.4398 527.387 22.4919 527.319 22.5293 527.225L22.6123 527.007L21.687 524.358H22.4463L22.937 526.001ZM27.0679 525.699H26.4844V527H25.752V523.445H27.0728C27.4927 523.445 27.8166 523.539 28.0444 523.726C28.2723 523.913 28.3862 524.178 28.3862 524.52C28.3862 524.762 28.3333 524.965 28.2275 525.127C28.1234 525.289 27.9647 525.417 27.7515 525.513L28.5205 526.966V527H27.7344L27.0679 525.699ZM26.4844 525.105H27.0752C27.2591 525.105 27.4015 525.059 27.5024 524.966C27.6034 524.872 27.6538 524.743 27.6538 524.578C27.6538 524.41 27.6058 524.279 27.5098 524.183C27.4154 524.087 27.2697 524.039 27.0728 524.039H26.4844V525.105ZM30.4297 527C30.3971 526.937 30.3735 526.858 30.3589 526.763C30.188 526.954 29.9658 527.049 29.6924 527.049C29.4336 527.049 29.2188 526.974 29.0479 526.824C28.8786 526.674 28.7939 526.486 28.7939 526.258C28.7939 525.978 28.8973 525.763 29.104 525.613C29.3123 525.464 29.6126 525.388 30.0049 525.386H30.3296V525.235C30.3296 525.113 30.2979 525.015 30.2344 524.942C30.1725 524.869 30.0741 524.832 29.939 524.832C29.8201 524.832 29.7266 524.861 29.6582 524.917C29.5915 524.974 29.5581 525.053 29.5581 525.152H28.8525C28.8525 524.999 28.8997 524.857 28.9941 524.727C29.0885 524.597 29.222 524.495 29.3945 524.422C29.5671 524.347 29.7607 524.31 29.9756 524.31C30.3011 524.31 30.5591 524.392 30.7495 524.556C30.9416 524.719 31.0376 524.948 31.0376 525.245V526.39C31.0392 526.64 31.0742 526.83 31.1426 526.958V527H30.4297ZM29.8462 526.509C29.9504 526.509 30.0464 526.486 30.1343 526.441C30.2222 526.394 30.2873 526.331 30.3296 526.253V525.799H30.0659C29.7127 525.799 29.5247 525.921 29.502 526.165L29.4995 526.207C29.4995 526.294 29.5304 526.367 29.5923 526.424C29.6541 526.481 29.7388 526.509 29.8462 526.509ZM32.229 524.358L32.251 524.664C32.4398 524.428 32.6929 524.31 33.0103 524.31C33.2902 524.31 33.4985 524.392 33.6353 524.556C33.772 524.721 33.842 524.966 33.8452 525.293V527H33.1396V525.311C33.1396 525.161 33.1071 525.053 33.042 524.986C32.9769 524.917 32.8687 524.883 32.7173 524.883C32.5187 524.883 32.3698 524.968 32.2705 525.137V527H31.5649V524.358H32.229ZM35.1294 524.358V527.144C35.1294 527.435 35.0521 527.662 34.8975 527.823C34.7428 527.986 34.5199 528.067 34.2285 528.067C34.1064 528.067 33.9901 528.053 33.8794 528.025V527.466C33.964 527.481 34.0381 527.488 34.1016 527.488C34.3148 527.488 34.4214 527.375 34.4214 527.149V524.358H35.1294ZM34.3652 523.675C34.3652 523.569 34.4002 523.482 34.4702 523.414C34.5418 523.345 34.6387 523.311 34.7607 523.311C34.8828 523.311 34.9788 523.345 35.0488 523.414C35.1204 523.482 35.1562 523.569 35.1562 523.675C35.1562 523.782 35.1196 523.87 35.0464 523.938C34.9748 524.007 34.8796 524.041 34.7607 524.041C34.6419 524.041 34.5459 524.007 34.4727 523.938C34.401 523.87 34.3652 523.782 34.3652 523.675ZM36.4258 527H35.7178V524.358H36.4258V527ZM35.6763 523.675C35.6763 523.569 35.7113 523.482 35.7812 523.414C35.8529 523.345 35.9497 523.311 36.0718 523.311C36.1922 523.311 36.2882 523.345 36.3599 523.414C36.4315 523.482 36.4673 523.569 36.4673 523.675C36.4673 523.782 36.4307 523.87 36.3574 523.938C36.2858 524.007 36.1906 524.041 36.0718 524.041C35.953 524.041 35.8569 524.007 35.7837 523.938C35.7121 523.87 35.6763 523.782 35.6763 523.675ZM37.854 523.709V524.358H38.3057V524.876H37.854V526.194C37.854 526.292 37.8727 526.362 37.9102 526.404C37.9476 526.447 38.0192 526.468 38.125 526.468C38.2031 526.468 38.2723 526.462 38.3325 526.451V526.985C38.1942 527.028 38.0518 527.049 37.9053 527.049C37.4105 527.049 37.1582 526.799 37.1484 526.299V524.876H36.7627V524.358H37.1484V523.709H37.854Z" fill="white"/>
<path d="M0.463867 532V529.876H0.0708008V529.358H0.463867V529.134C0.463867 528.838 0.548503 528.608 0.717773 528.445C0.888672 528.281 1.12712 528.199 1.43311 528.199C1.53076 528.199 1.65039 528.215 1.79199 528.248L1.78467 528.794C1.72607 528.78 1.65446 528.772 1.56982 528.772C1.30452 528.772 1.17188 528.897 1.17188 529.146V529.358H1.69678V529.876H1.17188V532H0.463867ZM3.54736 530.02C3.45133 530.007 3.3667 530 3.29346 530C3.02653 530 2.85156 530.091 2.76855 530.271V532H2.06299V529.358H2.72949L2.74902 529.673C2.89062 529.431 3.08675 529.31 3.3374 529.31C3.41553 529.31 3.48877 529.32 3.55713 529.341L3.54736 530.02ZM3.69141 530.655C3.69141 530.393 3.74186 530.159 3.84277 529.954C3.94368 529.749 4.08854 529.59 4.27734 529.478C4.46777 529.366 4.68831 529.31 4.93896 529.31C5.29541 529.31 5.58594 529.419 5.81055 529.637C6.03678 529.855 6.16292 530.151 6.18896 530.525L6.19385 530.706C6.19385 531.111 6.08073 531.437 5.85449 531.683C5.62826 531.927 5.32471 532.049 4.94385 532.049C4.56299 532.049 4.25863 531.927 4.03076 531.683C3.80452 531.438 3.69141 531.106 3.69141 530.687V530.655ZM4.39697 530.706C4.39697 530.957 4.44417 531.149 4.53857 531.282C4.63298 531.414 4.76807 531.48 4.94385 531.48C5.11475 531.48 5.24821 531.415 5.34424 531.285C5.44027 531.153 5.48828 530.943 5.48828 530.655C5.48828 530.409 5.44027 530.219 5.34424 530.083C5.24821 529.948 5.11312 529.881 4.93896 529.881C4.76644 529.881 4.63298 529.948 4.53857 530.083C4.44417 530.217 4.39697 530.424 4.39697 530.706ZM7.29004 529.358L7.31201 529.654C7.49919 529.424 7.75228 529.31 8.07129 529.31C8.41146 529.31 8.64502 529.444 8.77197 529.712C8.95752 529.444 9.22201 529.31 9.56543 529.31C9.85189 529.31 10.0651 529.393 10.2051 529.561C10.3451 529.727 10.415 529.978 10.415 530.313V532H9.70703V530.315C9.70703 530.166 9.67773 530.057 9.61914 529.988C9.56055 529.918 9.45719 529.883 9.30908 529.883C9.09749 529.883 8.95101 529.984 8.86963 530.186L8.87207 532H8.1665V530.318C8.1665 530.165 8.13639 530.054 8.07617 529.986C8.01595 529.917 7.91341 529.883 7.76855 529.883C7.56836 529.883 7.4235 529.966 7.33398 530.132V532H6.62842V529.358H7.29004ZM13.0493 528.709V529.358H13.501V529.876H13.0493V531.194C13.0493 531.292 13.068 531.362 13.1055 531.404C13.1429 531.447 13.2145 531.468 13.3203 531.468C13.3984 531.468 13.4676 531.462 13.5278 531.451V531.985C13.3895 532.028 13.2471 532.049 13.1006 532.049C12.6058 532.049 12.3535 531.799 12.3438 531.299V529.876H11.958V529.358H12.3438V528.709H13.0493ZM14.5825 529.646C14.7697 529.422 15.0049 529.31 15.2881 529.31C15.861 529.31 16.1515 529.642 16.1597 530.308V532H15.4541V530.328C15.4541 530.176 15.4215 530.065 15.3564 529.993C15.2913 529.92 15.1831 529.883 15.0317 529.883C14.825 529.883 14.6753 529.963 14.5825 530.123V532H13.877V528.25H14.5825V529.646ZM17.9077 532.049C17.5203 532.049 17.2046 531.93 16.9604 531.692C16.7179 531.455 16.5967 531.138 16.5967 530.743V530.674C16.5967 530.409 16.6479 530.172 16.7505 529.964C16.853 529.754 16.9979 529.593 17.1851 529.48C17.3739 529.367 17.5887 529.31 17.8296 529.31C18.1909 529.31 18.4749 529.424 18.6816 529.651C18.89 529.879 18.9941 530.202 18.9941 530.621V530.909H17.312C17.3348 531.081 17.4032 531.22 17.5171 531.324C17.6326 531.428 17.7783 531.48 17.9541 531.48C18.2259 531.48 18.4383 531.382 18.5913 531.185L18.938 531.573C18.8322 531.722 18.689 531.84 18.5083 531.924C18.3276 532.007 18.1274 532.049 17.9077 532.049ZM17.8271 529.881C17.6872 529.881 17.5732 529.928 17.4854 530.022C17.3991 530.117 17.3438 530.252 17.3193 530.428H18.3008V530.372C18.2975 530.215 18.2552 530.095 18.1738 530.01C18.0924 529.924 17.9769 529.881 17.8271 529.881ZM23.5791 532H22.8467L21.4209 529.661V532H20.6885V528.445H21.4209L22.8491 530.789V528.445H23.5791V532ZM24.0625 530.655C24.0625 530.393 24.113 530.159 24.2139 529.954C24.3148 529.749 24.4596 529.59 24.6484 529.478C24.8389 529.366 25.0594 529.31 25.3101 529.31C25.6665 529.31 25.957 529.419 26.1816 529.637C26.4079 529.855 26.534 530.151 26.5601 530.525L26.5649 530.706C26.5649 531.111 26.4518 531.437 26.2256 531.683C25.9993 531.927 25.6958 532.049 25.3149 532.049C24.9341 532.049 24.6297 531.927 24.4019 531.683C24.1756 531.438 24.0625 531.106 24.0625 530.687V530.655ZM24.7681 530.706C24.7681 530.957 24.8153 531.149 24.9097 531.282C25.0041 531.414 25.1392 531.48 25.3149 531.48C25.4858 531.48 25.6193 531.415 25.7153 531.285C25.8114 531.153 25.8594 530.943 25.8594 530.655C25.8594 530.409 25.8114 530.219 25.7153 530.083C25.6193 529.948 25.4842 529.881 25.3101 529.881C25.1375 529.881 25.0041 529.948 24.9097 530.083C24.8153 530.217 24.7681 530.424 24.7681 530.706ZM28.5815 531.731C28.4074 531.943 28.1665 532.049 27.8589 532.049C27.5757 532.049 27.3592 531.967 27.2095 531.805C27.0614 531.642 26.9857 531.403 26.9824 531.089V529.358H27.688V531.065C27.688 531.34 27.8133 531.478 28.064 531.478C28.3032 531.478 28.4676 531.395 28.5571 531.229V529.358H29.2651V532H28.6011L28.5815 531.731ZM30.4468 529.358L30.4688 529.664C30.6576 529.428 30.9106 529.31 31.228 529.31C31.508 529.31 31.7163 529.392 31.853 529.556C31.9897 529.721 32.0597 529.966 32.063 530.293V532H31.3574V530.311C31.3574 530.161 31.3249 530.053 31.2598 529.986C31.1947 529.917 31.0864 529.883 30.9351 529.883C30.7365 529.883 30.5876 529.968 30.4883 530.137V532H29.7827V529.358H30.4468ZM34.624 530.748V532H33.8916V528.445H35.2783C35.5452 528.445 35.7796 528.494 35.9814 528.592C36.1849 528.689 36.3411 528.829 36.4502 529.009C36.5592 529.188 36.6138 529.393 36.6138 529.622C36.6138 529.97 36.4941 530.245 36.2549 530.447C36.0173 530.647 35.6877 530.748 35.2661 530.748H34.624ZM34.624 530.154H35.2783C35.472 530.154 35.6193 530.109 35.7202 530.018C35.8228 529.926 35.874 529.796 35.874 529.627C35.874 529.453 35.8228 529.312 35.7202 529.205C35.6177 529.097 35.4761 529.042 35.2954 529.039H34.624V530.154ZM38.5571 530.02C38.4611 530.007 38.3765 530 38.3032 530C38.0363 530 37.8613 530.091 37.7783 530.271V532H37.0728V529.358H37.7393L37.7588 529.673C37.9004 529.431 38.0965 529.31 38.3472 529.31C38.4253 529.31 38.4985 529.32 38.5669 529.341L38.5571 530.02ZM38.7012 530.655C38.7012 530.393 38.7516 530.159 38.8525 529.954C38.9535 529.749 39.0983 529.59 39.2871 529.478C39.4775 529.366 39.6981 529.31 39.9487 529.31C40.3052 529.31 40.5957 529.419 40.8203 529.637C41.0465 529.855 41.1727 530.151 41.1987 530.525L41.2036 530.706C41.2036 531.111 41.0905 531.437 40.8643 531.683C40.638 531.927 40.3345 532.049 39.9536 532.049C39.5728 532.049 39.2684 531.927 39.0405 531.683C38.8143 531.438 38.7012 531.106 38.7012 530.687V530.655ZM39.4067 530.706C39.4067 530.957 39.4539 531.149 39.5483 531.282C39.6427 531.414 39.7778 531.48 39.9536 531.48C40.1245 531.48 40.258 531.415 40.354 531.285C40.45 531.153 40.498 530.943 40.498 530.655C40.498 530.409 40.45 530.219 40.354 530.083C40.258 529.948 40.1229 529.881 39.9487 529.881C39.7762 529.881 39.6427 529.948 39.5483 530.083C39.4539 530.217 39.4067 530.424 39.4067 530.706ZM42.3853 529.358V532.144C42.3853 532.435 42.3079 532.662 42.1533 532.823C41.9987 532.986 41.7757 533.067 41.4844 533.067C41.3623 533.067 41.2459 533.053 41.1353 533.025V532.466C41.2199 532.481 41.2939 532.488 41.3574 532.488C41.5706 532.488 41.6772 532.375 41.6772 532.149V529.358H42.3853ZM41.6211 528.675C41.6211 528.569 41.6561 528.482 41.7261 528.414C41.7977 528.345 41.8945 528.311 42.0166 528.311C42.1387 528.311 42.2347 528.345 42.3047 528.414C42.3763 528.482 42.4121 528.569 42.4121 528.675C42.4121 528.782 42.3755 528.87 42.3022 528.938C42.2306 529.007 42.1354 529.041 42.0166 529.041C41.8978 529.041 41.8018 529.007 41.7285 528.938C41.6569 528.87 41.6211 528.782 41.6211 528.675ZM44.1528 532.049C43.7655 532.049 43.4497 531.93 43.2056 531.692C42.9631 531.455 42.8418 531.138 42.8418 530.743V530.674C42.8418 530.409 42.8931 530.172 42.9956 529.964C43.0981 529.754 43.243 529.593 43.4302 529.48C43.619 529.367 43.8338 529.31 44.0747 529.31C44.436 529.31 44.7201 529.424 44.9268 529.651C45.1351 529.879 45.2393 530.202 45.2393 530.621V530.909H43.5571C43.5799 531.081 43.6483 531.22 43.7622 531.324C43.8778 531.428 44.0234 531.48 44.1992 531.48C44.471 531.48 44.6834 531.382 44.8364 531.185L45.1831 531.573C45.0773 531.722 44.9341 531.84 44.7534 531.924C44.5728 532.007 44.3726 532.049 44.1528 532.049ZM44.0723 529.881C43.9323 529.881 43.8184 529.928 43.7305 530.022C43.6442 530.117 43.5889 530.252 43.5645 530.428H44.5459V530.372C44.5426 530.215 44.5003 530.095 44.4189 530.01C44.3376 529.924 44.222 529.881 44.0723 529.881ZM46.7407 531.48C46.8709 531.48 46.9767 531.444 47.0581 531.373C47.1395 531.301 47.1818 531.206 47.1851 531.087H47.8467C47.8451 531.266 47.7962 531.43 47.7002 531.58C47.6042 531.728 47.4723 531.844 47.3047 531.927C47.1387 532.008 46.9548 532.049 46.7529 532.049C46.3753 532.049 46.0775 531.929 45.8594 531.69C45.6413 531.449 45.5322 531.117 45.5322 530.694V530.647C45.5322 530.241 45.6405 529.916 45.8569 529.673C46.0734 529.431 46.3704 529.31 46.748 529.31C47.0785 529.31 47.3429 529.404 47.5415 529.593C47.7417 529.78 47.8434 530.03 47.8467 530.342H47.1851C47.1818 530.206 47.1395 530.095 47.0581 530.01C46.9767 529.924 46.8693 529.881 46.7358 529.881C46.5715 529.881 46.4469 529.941 46.3623 530.062C46.2793 530.18 46.2378 530.374 46.2378 530.643V530.716C46.2378 530.988 46.2793 531.183 46.3623 531.302C46.4453 531.421 46.5715 531.48 46.7407 531.48ZM49.0942 528.709V529.358H49.5459V529.876H49.0942V531.194C49.0942 531.292 49.113 531.362 49.1504 531.404C49.1878 531.447 49.2594 531.468 49.3652 531.468C49.4434 531.468 49.5125 531.462 49.5728 531.451V531.985C49.4344 532.028 49.292 532.049 49.1455 532.049C48.6507 532.049 48.3984 531.799 48.3887 531.299V529.876H48.0029V529.358H48.3887V528.709H49.0942Z" fill="white"/>
</svg>
